<svg width="310" height="49" viewBox="0 0 310 49" fill="none" xmlns="http://www.w3.org/2000/svg">
<path d="M4.0745 48C3.09317 48 2.23983 47.6373 1.5145 46.912C0.789167 46.1867 0.4265 45.3333 0.4265 44.352V4.928C0.4265 3.94666 0.789167 3.09333 1.5145 2.368C2.23983 1.64266 3.09317 1.28 4.0745 1.28H7.7225C8.83183 1.28 9.8345 1.57867 10.7305 2.176C11.6265 2.77333 12.2878 3.584 12.7145 4.608L22.6345 28.736C22.6345 28.7787 22.6558 28.8 22.6985 28.8C22.7412 28.8 22.7625 28.7787 22.7625 28.736L32.6825 4.608C33.1092 3.584 33.7705 2.77333 34.6665 2.176C35.5625 1.57867 36.5652 1.28 37.6745 1.28H41.5785C42.5598 1.28 43.4132 1.64266 44.1385 2.368C44.8638 3.09333 45.2265 3.94666 45.2265 4.928V44.352C45.2265 45.3333 44.8638 46.1867 44.1385 46.912C43.4132 47.6373 42.5598 48 41.5785 48H38.5065C37.5252 48 36.6718 47.6373 35.9465 46.912C35.2638 46.1867 34.9225 45.3333 34.9225 44.352V19.456C34.9225 19.4133 34.9012 19.392 34.8585 19.392C34.7732 19.392 34.7305 19.4133 34.7305 19.456L28.5865 33.984C28.1598 35.008 27.4772 35.8187 26.5385 36.416C25.6425 37.0133 24.6398 37.312 23.5305 37.312H21.8665C20.7572 37.312 19.7332 37.0133 18.7945 36.416C17.8985 35.8187 17.2372 35.008 16.8105 33.984L10.6665 19.456C10.6665 19.4133 10.6238 19.392 10.5385 19.392C10.4958 19.392 10.4745 19.4133 10.4745 19.456V44.352C10.4745 45.3333 10.1118 46.1867 9.3865 46.912C8.70383 47.6373 7.87183 48 6.8905 48H4.0745ZM69.9665 32.768C64.7612 32.768 62.1585 34.368 62.1585 37.568C62.1585 38.72 62.4998 39.6373 63.1825 40.32C63.8652 40.96 64.7825 41.28 65.9345 41.28C67.9825 41.28 69.6465 40.64 70.9265 39.36C72.2065 38.0373 72.8465 36.288 72.8465 34.112V33.344C72.8465 32.96 72.6545 32.768 72.2705 32.768H69.9665ZM62.7985 48.64C59.8545 48.64 57.4225 47.7013 55.5025 45.824C53.6252 43.904 52.6865 41.4293 52.6865 38.4C52.6865 30.6347 58.4465 26.752 69.9665 26.752H72.2705C72.6545 26.752 72.8465 26.5813 72.8465 26.24V25.92C72.8465 24.2987 72.4198 23.1253 71.5665 22.4C70.7558 21.6747 69.3692 21.312 67.4065 21.312C64.8038 21.312 61.6892 21.7173 58.0625 22.528C57.1665 22.6987 56.3558 22.5067 55.6305 21.952C54.9478 21.3973 54.6065 20.672 54.6065 19.776V19.648C54.6065 18.5813 54.9265 17.6213 55.5665 16.768C56.2492 15.872 57.1025 15.3387 58.1265 15.168C61.8812 14.4427 65.1238 14.08 67.8545 14.08C73.4438 14.08 77.3905 15.0827 79.6945 17.088C82.0412 19.0933 83.2145 22.4213 83.2145 27.072V44.352C83.2145 45.3333 82.8518 46.1867 82.1265 46.912C81.4012 47.6373 80.5478 48 79.5665 48H77.1985C76.1745 48 75.2998 47.6587 74.5745 46.976C73.8492 46.2507 73.4652 45.376 73.4225 44.352V43.648C73.4225 43.6053 73.4012 43.584 73.3585 43.584C73.2732 43.584 73.2305 43.6053 73.2305 43.648C70.5425 46.976 67.0652 48.64 62.7985 48.64Z" fill="#F45555"/>
<path d="M93.397 23.232C92.4157 23.232 91.5623 22.8907 90.837 22.208C90.1117 21.4827 89.749 20.6293 89.749 19.648C89.749 18.6667 90.1117 17.8133 90.837 17.088C91.5623 16.3627 92.4157 16 93.397 16H95.957C96.2983 16 96.469 15.808 96.469 15.424V7.488C96.469 6.50667 96.8317 5.65333 97.557 4.928C98.2823 4.20266 99.1357 3.84 100.117 3.84H103.189C104.17 3.84 105.024 4.20266 105.749 4.928C106.474 5.65333 106.837 6.50667 106.837 7.488V15.424C106.837 15.808 107.029 16 107.413 16H113.685C114.666 16 115.498 16.3627 116.181 17.088C116.906 17.8133 117.269 18.6667 117.269 19.648C117.269 20.6293 116.906 21.4827 116.181 22.208C115.498 22.8907 114.666 23.232 113.685 23.232H107.413C107.029 23.232 106.837 23.424 106.837 23.808V34.752C106.837 37.44 107.072 39.1467 107.541 39.872C108.053 40.5973 109.162 40.96 110.869 40.96C111.765 40.96 112.469 40.9173 112.981 40.832C113.92 40.704 114.752 40.9173 115.477 41.472C116.202 42.0267 116.565 42.752 116.565 43.648V44.16C116.565 45.2267 116.224 46.1653 115.541 46.976C114.858 47.7867 113.984 48.256 112.917 48.384C111.594 48.5547 110.058 48.64 108.309 48.64C103.957 48.64 100.885 47.7227 99.093 45.888C97.3437 44.0107 96.469 40.6613 96.469 35.84V23.808C96.469 23.424 96.2983 23.232 95.957 23.232H93.397ZM129.692 48C128.711 48 127.857 47.6373 127.132 46.912C126.407 46.1867 126.044 45.3333 126.044 44.352V3.648C126.044 2.66667 126.407 1.81333 127.132 1.088C127.857 0.362663 128.711 -3.8147e-06 129.692 -3.8147e-06H132.764C133.745 -3.8147e-06 134.599 0.362663 135.324 1.088C136.049 1.81333 136.412 2.66667 136.412 3.648V18.176C136.412 18.2187 136.433 18.24 136.476 18.24C136.519 18.24 136.561 18.2187 136.604 18.176C139.591 15.4453 142.791 14.08 146.204 14.08C150.129 14.08 152.945 15.2107 154.652 17.472C156.359 19.6907 157.212 23.68 157.212 29.44V44.352C157.212 45.3333 156.849 46.1867 156.124 46.912C155.399 47.6373 154.545 48 153.564 48H150.748C149.767 48 148.913 47.6373 148.188 46.912C147.463 46.1867 147.1 45.3333 147.1 44.352V30.72C147.1 27.3067 146.759 25.0453 146.076 23.936C145.436 22.8267 144.199 22.272 142.364 22.272C140.913 22.272 139.548 22.912 138.268 24.192C137.031 25.4293 136.412 26.752 136.412 28.16V44.352C136.412 45.3333 136.049 46.1867 135.324 46.912C134.599 47.6373 133.745 48 132.764 48H129.692Z" fill="#77D7F5"/>
<path d="M177.253 35.2C172.645 34.3467 169.338 33.024 167.333 31.232C165.37 29.44 164.389 27.072 164.389 24.128C164.389 20.9707 165.562 18.5173 167.909 16.768C170.298 14.976 173.882 14.08 178.661 14.08C181.477 14.08 184.357 14.3147 187.301 14.784C188.325 14.9547 189.157 15.4453 189.797 16.256C190.48 17.0667 190.821 18.0053 190.821 19.072V19.392C190.821 20.288 190.458 21.0133 189.733 21.568C189.05 22.1227 188.261 22.3147 187.365 22.144C184.592 21.5893 182.032 21.312 179.685 21.312C177.936 21.312 176.698 21.5253 175.973 21.952C175.29 22.3787 174.949 23.0187 174.949 23.872C174.949 25.4933 176.229 26.56 178.789 27.072C183.653 27.8827 187.045 29.1627 188.965 30.912C190.928 32.6613 191.909 35.2 191.909 38.528C191.909 41.728 190.714 44.224 188.325 46.016C185.936 47.7653 182.458 48.64 177.893 48.64C174.565 48.64 171.408 48.32 168.421 47.68C167.397 47.4667 166.544 46.9333 165.861 46.08C165.221 45.184 164.901 44.1813 164.901 43.072V42.56C164.901 41.664 165.264 40.9813 165.989 40.512C166.714 40 167.525 39.8507 168.421 40.064C171.194 40.7893 173.925 41.152 176.613 41.152C179.77 41.152 181.349 40.2347 181.349 38.4C181.349 37.5467 181.05 36.8853 180.453 36.416C179.898 35.9467 178.832 35.5413 177.253 35.2ZM210.74 28.16V39.424C210.74 39.808 210.932 40.0427 211.316 40.128C212.212 40.2987 213.3 40.384 214.58 40.384C217.609 40.384 219.828 39.8293 221.236 38.72C222.644 37.568 223.348 35.8187 223.348 33.472C223.348 29.5467 220.148 27.584 213.748 27.584H211.252C210.91 27.584 210.74 27.776 210.74 28.16ZM210.74 9.856V19.264C210.74 19.6053 210.91 19.776 211.252 19.776H212.852C219.081 19.776 222.196 17.92 222.196 14.208C222.196 10.6667 219.593 8.896 214.388 8.896C213.15 8.896 212.105 8.98133 211.252 9.152C210.91 9.23733 210.74 9.472 210.74 9.856ZM203.635 48.128C202.612 48.0427 201.758 47.5947 201.076 46.784C200.393 45.9733 200.052 45.056 200.052 44.032V5.248C200.052 4.18133 200.393 3.264 201.076 2.496C201.801 1.68533 202.676 1.23733 203.7 1.152C207.028 0.810665 210.292 0.639999 213.492 0.639999C225.865 0.639999 232.052 4.62933 232.052 12.608C232.052 15.296 231.177 17.5787 229.428 19.456C227.721 21.3333 225.417 22.528 222.516 23.04C222.473 23.04 222.452 23.0827 222.452 23.168C222.452 23.2107 222.494 23.232 222.58 23.232C225.95 23.7013 228.617 24.9813 230.58 27.072C232.585 29.1627 233.588 31.6587 233.588 34.56C233.588 39.296 232.009 42.8373 228.852 45.184C225.737 47.488 220.83 48.64 214.132 48.64C210.761 48.64 207.262 48.4693 203.635 48.128Z" fill="#A6F368"/>
<path d="M250.155 48.64C246.4 48.64 243.669 47.5947 241.963 45.504C240.299 43.4133 239.467 39.8293 239.467 34.752V18.368C239.467 17.3867 239.829 16.5333 240.555 15.808C241.28 15.0827 242.133 14.72 243.115 14.72H245.931C246.912 14.72 247.765 15.0827 248.491 15.808C249.216 16.5333 249.579 17.3867 249.579 18.368V34.048C249.579 36.5227 249.899 38.2293 250.539 39.168C251.221 40.064 252.373 40.512 253.995 40.512C255.488 40.512 256.853 39.9147 258.091 38.72C259.328 37.4827 259.947 36.16 259.947 34.752V18.368C259.947 17.3867 260.309 16.5333 261.035 15.808C261.76 15.0827 262.613 14.72 263.595 14.72H266.667C267.648 14.72 268.501 15.0827 269.227 15.808C269.952 16.5333 270.315 17.3867 270.315 18.368V44.352C270.315 45.3333 269.952 46.1867 269.227 46.912C268.501 47.6373 267.648 48 266.667 48H264.043C263.019 48 262.144 47.6587 261.419 46.976C260.736 46.2507 260.373 45.376 260.331 44.352V43.84C260.331 43.7973 260.309 43.776 260.267 43.776L260.139 43.904C257.365 47.0613 254.037 48.64 250.155 48.64ZM293.378 21.76C289.112 21.76 286.979 24.96 286.979 31.36C286.979 34.6027 287.555 37.0133 288.707 38.592C289.859 40.1707 291.416 40.96 293.378 40.96C295.085 40.96 296.579 40.384 297.859 39.232C299.139 38.08 299.779 36.7787 299.779 35.328V27.392C299.779 25.9413 299.139 24.64 297.859 23.488C296.579 22.336 295.085 21.76 293.378 21.76ZM289.859 48.64C286.061 48.64 282.947 47.1253 280.515 44.096C278.083 41.024 276.867 36.7787 276.867 31.36C276.867 25.8133 278.04 21.5467 280.387 18.56C282.733 15.5733 285.891 14.08 289.859 14.08C293.357 14.08 296.536 15.3813 299.395 17.984C299.437 18.0267 299.48 18.048 299.523 18.048C299.565 18.048 299.587 18.0267 299.587 17.984V3.648C299.587 2.66667 299.928 1.81333 300.611 1.088C301.336 0.362663 302.189 -3.8147e-06 303.171 -3.8147e-06H306.307C307.288 -3.8147e-06 308.12 0.362663 308.803 1.088C309.528 1.81333 309.891 2.66667 309.891 3.648V44.352C309.891 45.3333 309.528 46.1867 308.803 46.912C308.12 47.6373 307.288 48 306.307 48H303.875C302.851 48 301.976 47.6587 301.251 46.976C300.568 46.2507 300.205 45.376 300.163 44.352V43.84C300.163 43.7973 300.141 43.776 300.099 43.776L299.971 43.904C297.283 47.0613 293.912 48.64 289.859 48.64Z" fill="#DD6EF9"/>
<path d="M1.5145 46.912L-1.31393 49.7404L-1.31393 49.7404L1.5145 46.912ZM1.5145 2.368L-1.31392 -0.460435L-1.31393 -0.460429L1.5145 2.368ZM10.7305 2.176L12.9493 -1.1522L12.9493 -1.1522L10.7305 2.176ZM12.7145 4.608L16.414 3.08697L16.4104 3.07825L16.4068 3.06954L12.7145 4.608ZM22.6345 28.736H26.6345V27.9458L26.334 27.215L22.6345 28.736ZM22.7625 28.736L19.063 27.215L18.7625 27.9458V28.736H22.7625ZM32.6825 4.608L28.9902 3.06954L28.9866 3.07825L28.983 3.08697L32.6825 4.608ZM34.6665 2.176L32.4477 -1.1522L32.4477 -1.1522L34.6665 2.176ZM44.1385 2.368L46.9669 -0.460426L46.9669 -0.460436L44.1385 2.368ZM44.1385 46.912L46.9669 49.7404L46.9669 49.7404L44.1385 46.912ZM35.9465 46.912L33.0337 49.6535L33.0752 49.6976L33.1181 49.7404L35.9465 46.912ZM34.7305 19.456L38.4146 21.014L38.7305 20.267V19.456H34.7305ZM28.5865 33.984L24.9024 32.426L24.8983 32.4357L24.8942 32.4455L28.5865 33.984ZM26.5385 36.416L24.391 33.0414L24.3551 33.0642L24.3197 33.0878L26.5385 36.416ZM18.7945 36.416L16.5757 39.7442L16.6111 39.7678L16.647 39.7906L18.7945 36.416ZM16.8105 33.984L20.5028 32.4455L20.4987 32.4357L20.4946 32.426L16.8105 33.984ZM10.6665 19.456H6.6665V20.267L6.98241 21.014L10.6665 19.456ZM9.3865 46.912L6.55807 44.0836L6.51523 44.1264L6.4737 44.1705L9.3865 46.912ZM4.0745 44C4.07677 44 4.09978 44.0003 4.13819 44.0079C4.17717 44.0156 4.22035 44.0285 4.26306 44.0467C4.35623 44.0863 4.38148 44.1221 4.34293 44.0836L-1.31393 49.7404C0.1237 51.1781 1.97994 52 4.0745 52V44ZM4.34293 44.0836C4.30437 44.045 4.34023 44.0703 4.37982 44.1634C4.39798 44.2062 4.41086 44.2493 4.41857 44.2883C4.42616 44.3267 4.4265 44.3497 4.4265 44.352H-3.5735C-3.5735 46.4466 -2.75155 48.3028 -1.31393 49.7404L4.34293 44.0836ZM4.4265 44.352V4.928H-3.5735V44.352H4.4265ZM4.4265 4.928C4.4265 4.93027 4.42616 4.95327 4.41857 4.99168C4.41086 5.03066 4.39798 5.07385 4.37982 5.11656C4.34023 5.20973 4.30437 5.23498 4.34293 5.19642L-1.31393 -0.460429C-2.75155 0.977198 -3.5735 2.83344 -3.5735 4.928H4.4265ZM4.34292 5.19643C4.38148 5.15787 4.35623 5.19373 4.26306 5.23332C4.22035 5.25148 4.17716 5.26436 4.13819 5.27207C4.09978 5.27966 4.07677 5.28 4.0745 5.28V-2.72C1.97995 -2.72 0.123704 -1.89806 -1.31392 -0.460435L4.34292 5.19643ZM4.0745 5.28H7.7225V-2.72H4.0745V5.28ZM7.7225 5.28C8.06738 5.28 8.29347 5.35871 8.5117 5.5042L12.9493 -1.1522C11.3755 -2.20138 9.59629 -2.72 7.7225 -2.72V5.28ZM8.5117 5.5042C8.72993 5.64969 8.88955 5.82811 9.02219 6.14646L16.4068 3.06954C15.6861 1.33989 14.5231 -0.103024 12.9493 -1.1522L8.5117 5.5042ZM9.01498 6.12902L18.935 30.257L26.334 27.215L16.414 3.08697L9.01498 6.12902ZM18.6345 28.736C18.6345 29.3739 18.7967 30.587 19.8221 31.6124C20.8475 32.6378 22.0606 32.8 22.6985 32.8V24.8C23.2937 24.8 24.4749 24.9515 25.4789 25.9556C26.483 26.9596 26.6345 28.1408 26.6345 28.736H18.6345ZM22.6985 32.8C23.3364 32.8 24.5496 32.6378 25.575 31.6124C26.6003 30.587 26.7625 29.3739 26.7625 28.736H18.7625C18.7625 28.1408 18.914 26.9597 19.918 25.9556C20.9221 24.9515 22.1032 24.8 22.6985 24.8V32.8ZM26.462 30.257L36.382 6.12902L28.983 3.08697L19.063 27.215L26.462 30.257ZM36.3748 6.14646C36.5075 5.82811 36.6671 5.64969 36.8853 5.5042L32.4477 -1.1522C30.8739 -0.103022 29.7109 1.33989 28.9902 3.06954L36.3748 6.14646ZM36.8853 5.5042C37.1035 5.35871 37.3296 5.28 37.6745 5.28V-2.72C35.8007 -2.72 34.0215 -2.20138 32.4477 -1.1522L36.8853 5.5042ZM37.6745 5.28H41.5785V-2.72H37.6745V5.28ZM41.5785 5.28C41.5762 5.28 41.5532 5.27966 41.5148 5.27207C41.4758 5.26436 41.4327 5.25148 41.3899 5.23332C41.2968 5.19373 41.2715 5.15787 41.3101 5.19643L46.9669 -0.460436C45.5293 -1.89806 43.6731 -2.72 41.5785 -2.72V5.28ZM41.3101 5.19642C41.3486 5.23497 41.3128 5.20972 41.2732 5.11656C41.255 5.07384 41.2421 5.03066 41.2344 4.99168C41.2268 4.95327 41.2265 4.93027 41.2265 4.928H49.2265C49.2265 2.83344 48.4046 0.977202 46.9669 -0.460426L41.3101 5.19642ZM41.2265 4.928V44.352H49.2265V4.928H41.2265ZM41.2265 44.352C41.2265 44.3497 41.2268 44.3267 41.2344 44.2883C41.2421 44.2493 41.255 44.2062 41.2732 44.1634C41.3128 44.0703 41.3486 44.045 41.3101 44.0836L46.9669 49.7404C48.4046 48.3028 49.2265 46.4466 49.2265 44.352H41.2265ZM41.3101 44.0836C41.2715 44.1221 41.2968 44.0863 41.3899 44.0467C41.4327 44.0285 41.4758 44.0156 41.5148 44.0079C41.5532 44.0003 41.5762 44 41.5785 44V52C43.6731 52 45.5293 51.1781 46.9669 49.7404L41.3101 44.0836ZM41.5785 44H38.5065V52H41.5785V44ZM38.5065 44C38.5088 44 38.5318 44.0003 38.5702 44.0079C38.6092 44.0156 38.6524 44.0285 38.6951 44.0467C38.7882 44.0863 38.8135 44.1221 38.7749 44.0836L33.1181 49.7404C34.5557 51.1781 36.4119 52 38.5065 52V44ZM38.8593 44.1705C38.8434 44.1536 38.8445 44.1521 38.8543 44.1672C38.8645 44.1829 38.8789 44.2086 38.8924 44.2424C38.906 44.2763 38.9144 44.3078 38.919 44.3324C38.9235 44.3564 38.9225 44.3645 38.9225 44.352H30.9225C30.9225 46.3692 31.6644 48.1985 33.0337 49.6535L38.8593 44.1705ZM38.9225 44.352V19.456H30.9225V44.352H38.9225ZM38.9225 19.456C38.9225 18.8181 38.7603 17.605 37.735 16.5796C36.7096 15.5542 35.4964 15.392 34.8585 15.392V23.392C34.2632 23.392 33.0821 23.2405 32.078 22.2364C31.074 21.2323 30.9225 20.0512 30.9225 19.456H38.9225ZM34.8585 15.392C34.6115 15.392 33.8308 15.4017 32.9736 15.8303C32.4884 16.0729 31.8842 16.4983 31.4103 17.2092C30.9196 17.9452 30.7305 18.7454 30.7305 19.456H38.7305C38.7305 20.1452 38.5467 20.9268 38.0667 21.6468C37.6035 22.3417 37.0153 22.7537 36.5514 22.9857C35.7369 23.393 35.0201 23.392 34.8585 23.392V15.392ZM31.0464 17.898L24.9024 32.426L32.2706 35.542L38.4146 21.014L31.0464 17.898ZM24.8942 32.4455C24.7834 32.7114 24.6411 32.8822 24.391 33.0414L28.686 39.7906C30.3132 38.7552 31.5363 37.3046 32.2788 35.5225L24.8942 32.4455ZM24.3197 33.0878C24.1015 33.2333 23.8754 33.312 23.5305 33.312V41.312C25.4043 41.312 27.1835 40.7934 28.7573 39.7442L24.3197 33.0878ZM23.5305 33.312H21.8665V41.312H23.5305V33.312ZM21.8665 33.312C21.5203 33.312 21.2409 33.2315 20.942 33.0414L16.647 39.7906C18.2255 40.7951 19.994 41.312 21.8665 41.312V33.312ZM21.0133 33.0878C20.7951 32.9423 20.6355 32.7639 20.5028 32.4455L13.1182 35.5225C13.8389 37.2521 15.0019 38.695 16.5757 39.7442L21.0133 33.0878ZM20.4946 32.426L14.3506 17.898L6.98241 21.014L13.1264 35.542L20.4946 32.426ZM14.6665 19.456C14.6665 18.7454 14.4774 17.9452 13.9867 17.2092C13.5128 16.4983 12.9086 16.0729 12.4234 15.8303C11.5662 15.4017 10.7855 15.392 10.5385 15.392V23.392C10.3769 23.392 9.66015 23.393 8.84563 22.9857C8.38177 22.7538 7.79357 22.3417 7.33028 21.6468C6.85031 20.9268 6.6665 20.1453 6.6665 19.456H14.6665ZM10.5385 15.392C9.90057 15.392 8.68744 15.5542 7.66205 16.5796C6.63668 17.605 6.4745 18.8181 6.4745 19.456H14.4745C14.4745 20.0512 14.323 21.2324 13.3189 22.2364C12.3149 23.2405 11.1338 23.392 10.5385 23.392V15.392ZM6.4745 19.456V44.352H14.4745V19.456H6.4745ZM6.4745 44.352C6.4745 44.3497 6.47484 44.3267 6.48243 44.2883C6.49014 44.2493 6.50302 44.2061 6.52118 44.1634C6.56077 44.0703 6.59663 44.045 6.55807 44.0836L12.2149 49.7404C13.6526 48.3028 14.4745 46.4466 14.4745 44.352H6.4745ZM6.4737 44.1705C6.467 44.1777 6.52544 44.1165 6.65216 44.0612C6.78021 44.0054 6.87634 44 6.8905 44V52C8.99338 52 10.8736 51.1683 12.2993 49.6535L6.4737 44.1705ZM6.8905 44H4.0745V52H6.8905V44ZM63.1825 40.32L60.3541 43.1484L60.3997 43.194L60.4467 43.2381L63.1825 40.32ZM70.9265 39.36L73.7549 42.1884L73.7781 42.1652L73.8009 42.1417L70.9265 39.36ZM55.5025 45.824L52.6425 48.6205L52.6739 48.6526L52.706 48.684L55.5025 45.824ZM71.5665 22.4L68.8993 25.381L68.9372 25.4148L68.9759 25.4478L71.5665 22.4ZM58.0625 22.528L58.8109 26.4574L58.8732 26.4455L58.9351 26.4317L58.0625 22.528ZM55.6305 21.952L53.1081 25.0565L53.1539 25.0936L53.2007 25.1294L55.6305 21.952ZM55.5665 16.768L52.3848 14.3438L52.3756 14.3559L52.3665 14.368L55.5665 16.768ZM58.1265 15.168L58.7841 19.1136L58.8348 19.1051L58.8852 19.0954L58.1265 15.168ZM79.6945 17.088L77.0684 20.1052L77.0821 20.1171L77.0959 20.1289L79.6945 17.088ZM82.1265 46.912L84.9549 49.7404L84.9549 49.7404L82.1265 46.912ZM74.5745 46.976L71.7461 49.8044L71.7889 49.8473L71.833 49.8888L74.5745 46.976ZM73.4225 44.352H69.4225V44.4353L69.426 44.5185L73.4225 44.352ZM73.2305 43.648L76.3423 46.1613L77.2305 45.0616V43.648H73.2305ZM69.9665 28.768C67.084 28.768 64.2487 29.1877 62.0157 30.5604C59.4638 32.1292 58.1585 34.6583 58.1585 37.568H66.1585C66.1585 37.3189 66.2055 37.2959 66.1629 37.3746C66.1156 37.4618 66.0792 37.4531 66.2053 37.3756C66.575 37.1483 67.6437 36.768 69.9665 36.768V28.768ZM58.1585 37.568C58.1585 39.5611 58.7789 41.5733 60.3541 43.1484L66.0109 37.4916C66.0408 37.5215 66.0736 37.5609 66.1036 37.6078C66.1335 37.6545 66.1526 37.696 66.1634 37.7251C66.1853 37.784 66.1585 37.7503 66.1585 37.568H58.1585ZM60.4467 43.2381C62.0332 44.7254 64.0131 45.28 65.9345 45.28V37.28C65.7259 37.28 65.6647 37.2509 65.7 37.2632C65.718 37.2695 65.7527 37.2837 65.7965 37.31C65.8407 37.3365 65.8824 37.3683 65.9183 37.4019L60.4467 43.2381ZM65.9345 45.28C68.8915 45.28 71.6238 44.3195 73.7549 42.1884L68.0981 36.5316C67.6692 36.9605 67.0735 37.28 65.9345 37.28V45.28ZM73.8009 42.1417C75.9323 39.9392 76.8465 37.1238 76.8465 34.112H68.8465C68.8465 35.4522 68.4807 36.1355 68.0521 36.5783L73.8009 42.1417ZM76.8465 34.112V33.344H68.8465V34.112H76.8465ZM76.8465 33.344C76.8465 32.5354 76.6416 31.1943 75.5309 30.0836C74.4202 28.9729 73.0791 28.768 72.2705 28.768V36.768C71.8459 36.768 70.7928 36.6591 69.8741 35.7404C68.9554 34.8217 68.8465 33.7686 68.8465 33.344H76.8465ZM72.2705 28.768H69.9665V36.768H72.2705V28.768ZM62.7985 44.64C60.7894 44.64 59.3962 44.0368 58.299 42.964L52.706 48.684C55.4488 51.3658 58.9196 52.64 62.7985 52.64V44.64ZM58.3625 43.0275C57.3118 41.9529 56.6865 40.5296 56.6865 38.4H48.6865C48.6865 42.3291 49.9385 45.8551 52.6425 48.6205L58.3625 43.0275ZM56.6865 38.4C56.6865 35.6638 57.6094 34.0815 59.2423 32.9808C61.1559 31.6909 64.5303 30.752 69.9665 30.752V22.752C63.8827 22.752 58.6171 23.7544 54.7707 26.3472C50.6436 29.1292 48.6865 33.3709 48.6865 38.4H56.6865ZM69.9665 30.752H72.2705V22.752H69.9665V30.752ZM72.2705 30.752C72.9706 30.752 74.2428 30.6066 75.36 29.6136C76.5669 28.5408 76.8465 27.1573 76.8465 26.24H68.8465C68.8465 25.6641 69.0301 24.5365 70.045 23.6344C70.9702 22.812 71.9544 22.752 72.2705 22.752V30.752ZM76.8465 26.24V25.92H68.8465V26.24H76.8465ZM76.8465 25.92C76.8465 23.6656 76.2474 21.129 74.1571 19.3522L68.9759 25.4478C68.9051 25.3876 68.8491 25.3223 68.8098 25.264C68.7718 25.2076 68.7622 25.1768 68.7673 25.191C68.7817 25.2306 68.8465 25.4436 68.8465 25.92H76.8465ZM74.2337 19.419C72.2924 17.6821 69.6425 17.312 67.4065 17.312V25.312C68.1625 25.312 68.6396 25.3841 68.9064 25.4538C69.173 25.5236 69.0933 25.5546 68.8993 25.381L74.2337 19.419ZM67.4065 17.312C64.4151 17.312 60.9922 17.7744 57.1899 18.6243L58.9351 26.4317C62.3861 25.6603 65.1925 25.312 67.4065 25.312V17.312ZM57.3141 18.5986C57.3663 18.5887 57.5116 18.574 57.7044 18.6197C57.897 18.6653 58.0195 18.7434 58.0603 18.7746L53.2007 25.1294C54.8291 26.3747 56.7954 26.8413 58.8109 26.4574L57.3141 18.5986ZM58.1529 18.8475C58.2318 18.9117 58.3726 19.0568 58.4818 19.2888C58.5899 19.5187 58.6065 19.705 58.6065 19.776H50.6065C50.6065 21.8504 51.4706 23.7259 53.1081 25.0565L58.1529 18.8475ZM58.6065 19.776V19.648H50.6065V19.776H58.6065ZM58.6065 19.648C58.6065 19.4468 58.6458 19.3289 58.7665 19.168L52.3665 14.368C51.2072 15.9137 50.6065 17.7159 50.6065 19.648H58.6065ZM58.7482 19.1922C58.7912 19.1357 58.8214 19.1053 58.8354 19.0923C58.8489 19.0797 58.8501 19.0808 58.8385 19.088C58.8266 19.0955 58.811 19.1033 58.795 19.1093C58.7793 19.1152 58.7739 19.1153 58.7841 19.1136L57.4689 11.2224C55.351 11.5754 53.6272 12.7132 52.3848 14.3438L58.7482 19.1922ZM58.8852 19.0954C62.4808 18.4008 65.4569 18.08 67.8545 18.08V10.08C64.7908 10.08 61.2815 10.4846 57.3678 11.2406L58.8852 19.0954ZM67.8545 18.08C73.1906 18.08 75.8926 19.0818 77.0684 20.1052L82.3206 14.0708C78.8884 11.0835 73.6971 10.08 67.8545 10.08V18.08ZM77.0959 20.1289C78.181 21.0562 79.2145 22.9916 79.2145 27.072H87.2145C87.2145 21.8511 85.9014 17.1305 82.2931 14.0471L77.0959 20.1289ZM79.2145 27.072V44.352H87.2145V27.072H79.2145ZM79.2145 44.352C79.2145 44.3497 79.2148 44.3267 79.2224 44.2883C79.2301 44.2493 79.243 44.2062 79.2612 44.1634C79.3008 44.0703 79.3366 44.045 79.2981 44.0836L84.9549 49.7404C86.3926 48.3028 87.2145 46.4466 87.2145 44.352H79.2145ZM79.2981 44.0836C79.2595 44.1221 79.2848 44.0863 79.3779 44.0467C79.4207 44.0285 79.4638 44.0156 79.5028 44.0079C79.5412 44.0003 79.5642 44 79.5665 44V52C81.6611 52 83.5173 51.1781 84.9549 49.7404L79.2981 44.0836ZM79.5665 44H77.1985V52H79.5665V44ZM77.1985 44C77.1653 44 77.1562 43.9973 77.1663 43.9991C77.177 44.001 77.1994 44.0063 77.2287 44.0177C77.258 44.0292 77.2836 44.0427 77.3027 44.0549C77.3214 44.0669 77.3255 44.0722 77.316 44.0632L71.833 49.8888C73.3231 51.2912 75.1872 52 77.1985 52V44ZM77.4029 44.1476C77.3816 44.1263 77.3771 44.1182 77.3817 44.1249C77.3838 44.1279 77.3874 44.1334 77.3918 44.1412C77.3962 44.1491 77.4007 44.1581 77.4051 44.168C77.4094 44.178 77.413 44.1875 77.4159 44.1961C77.4187 44.2047 77.4203 44.2112 77.4212 44.215C77.423 44.2232 77.4203 44.215 77.419 44.1855L69.426 44.5185C69.5104 46.5459 70.312 48.3704 71.7461 49.8044L77.4029 44.1476ZM77.4225 44.352V43.648H69.4225V44.352H77.4225ZM77.4225 43.648C77.4225 43.0101 77.2603 41.797 76.2349 40.7716C75.2096 39.7462 73.9964 39.584 73.3585 39.584V47.584C72.7632 47.584 71.5821 47.4325 70.5781 46.4284C69.574 45.4244 69.4225 44.2432 69.4225 43.648H77.4225ZM73.3585 39.584C73.1115 39.584 72.3308 39.5937 71.4736 40.0223C70.9885 40.2649 70.3843 40.6903 69.9103 41.4012C69.4196 42.1372 69.2305 42.9374 69.2305 43.648H77.2305C77.2305 44.3373 77.0467 45.1188 76.5667 45.8388C76.1034 46.5337 75.5152 46.9458 75.0514 47.1777C74.2368 47.585 73.5201 47.584 73.3585 47.584V39.584ZM70.1187 41.1347C68.1878 43.5254 65.8529 44.64 62.7985 44.64V52.64C68.2775 52.64 72.8972 50.4266 76.3423 46.1613L70.1187 41.1347ZM90.837 22.208L88.0086 25.0364L88.0514 25.0793L88.0955 25.1208L90.837 22.208ZM90.837 17.088L88.0086 14.2596L90.837 17.088ZM97.557 4.928L94.7286 2.09957L94.7286 2.09957L97.557 4.928ZM105.749 4.928L102.921 7.75642L102.921 7.75642L105.749 4.928ZM116.181 17.088L113.268 19.8295L113.31 19.8736L113.353 19.9164L116.181 17.088ZM107.541 39.872L104.183 42.045L104.227 42.1128L104.273 42.1787L107.541 39.872ZM112.981 40.832L112.441 36.8687L112.382 36.8767L112.323 36.8864L112.981 40.832ZM115.477 41.472L117.907 38.2946L117.907 38.2946L115.477 41.472ZM115.541 46.976L118.601 49.5525L118.601 49.5525L115.541 46.976ZM112.917 48.384L112.44 44.4125L112.423 44.4146L112.405 44.4169L112.917 48.384ZM99.093 45.888L96.1666 48.6149L96.1986 48.6493L96.2315 48.683L99.093 45.888ZM93.397 19.232C93.3845 19.232 93.3926 19.231 93.4166 19.2355C93.4412 19.2401 93.4727 19.2485 93.5066 19.2621C93.5404 19.2756 93.5661 19.29 93.5818 19.3002C93.5969 19.31 93.5954 19.3111 93.5785 19.2952L88.0955 25.1208C89.5505 26.4901 91.3798 27.232 93.397 27.232V19.232ZM93.6654 19.3796C93.6269 19.341 93.6627 19.3663 93.7023 19.4594C93.7205 19.5021 93.7334 19.5453 93.7411 19.5843C93.7487 19.6227 93.749 19.6457 93.749 19.648H85.749C85.749 21.7426 86.5709 23.5988 88.0086 25.0364L93.6654 19.3796ZM93.749 19.648C93.749 19.6503 93.7487 19.6733 93.7411 19.7117C93.7334 19.7507 93.7205 19.7938 93.7023 19.8366C93.6627 19.9297 93.6269 19.955 93.6654 19.9164L88.0086 14.2596C86.5709 15.6972 85.749 17.5534 85.749 19.648H93.749ZM93.6654 19.9164C93.704 19.8779 93.6787 19.9137 93.5856 19.9533C93.5428 19.9715 93.4997 19.9844 93.4607 19.9921C93.4223 19.9997 93.3993 20 93.397 20V12C91.3024 12 89.4462 12.8219 88.0086 14.2596L93.6654 19.9164ZM93.397 20H95.957V12H93.397V20ZM95.957 20C96.8743 20 98.2578 19.7204 99.3306 18.5135C100.324 17.3963 100.469 16.1241 100.469 15.424H92.469C92.469 15.1079 92.529 14.1237 93.3514 13.1985C94.2535 12.1836 95.3811 12 95.957 12V20ZM100.469 15.424V7.488H92.469V15.424H100.469ZM100.469 7.488C100.469 7.49027 100.469 7.51328 100.461 7.55169C100.453 7.59066 100.44 7.63385 100.422 7.67656C100.383 7.76973 100.347 7.79498 100.385 7.75642L94.7286 2.09957C93.2909 3.5372 92.469 5.39344 92.469 7.488H100.469ZM100.385 7.75642C100.424 7.71787 100.399 7.75372 100.306 7.79332C100.263 7.81147 100.22 7.82436 100.181 7.83206C100.142 7.83966 100.119 7.84 100.117 7.84V-0.160004C98.0224 -0.160004 96.1662 0.661944 94.7286 2.09957L100.385 7.75642ZM100.117 7.84H103.189V-0.160004H100.117V7.84ZM103.189 7.84C103.187 7.84 103.164 7.83966 103.125 7.83206C103.086 7.82436 103.043 7.81147 103 7.79332C102.907 7.75372 102.882 7.71787 102.921 7.75642L108.577 2.09957C107.14 0.661944 105.284 -0.160004 103.189 -0.160004V7.84ZM102.921 7.75642C102.959 7.79498 102.923 7.76973 102.884 7.67656C102.866 7.63385 102.853 7.59067 102.845 7.55169C102.837 7.51328 102.837 7.49027 102.837 7.488H110.837C110.837 5.39344 110.015 3.5372 108.577 2.09957L102.921 7.75642ZM102.837 7.488V15.424H110.837V7.488H102.837ZM102.837 15.424C102.837 16.2326 103.042 17.5737 104.153 18.6844C105.263 19.7951 106.604 20 107.413 20V12C107.838 12 108.891 12.1089 109.809 13.0276C110.728 13.9463 110.837 14.9994 110.837 15.424H102.837ZM107.413 20H113.685V12H107.413V20ZM113.685 20C113.671 20 113.575 19.9946 113.447 19.9388C113.32 19.8835 113.262 19.8223 113.268 19.8295L119.094 14.3465C117.668 12.8317 115.788 12 113.685 12V20ZM113.353 19.9164C113.391 19.955 113.355 19.9297 113.316 19.8366C113.298 19.7938 113.285 19.7507 113.277 19.7117C113.269 19.6733 113.269 19.6503 113.269 19.648H121.269C121.269 17.5534 120.447 15.6972 119.009 14.2596L113.353 19.9164ZM113.269 19.648C113.269 19.6457 113.269 19.6227 113.277 19.5843C113.285 19.5453 113.298 19.5021 113.316 19.4594C113.355 19.3663 113.391 19.341 113.353 19.3796L119.009 25.0364C120.447 23.5988 121.269 21.7426 121.269 19.648H113.269ZM113.353 19.3796C113.352 19.3801 113.368 19.3646 113.401 19.3422C113.434 19.3194 113.477 19.2956 113.527 19.2753C113.635 19.231 113.703 19.232 113.685 19.232V27.232C115.708 27.232 117.563 26.483 119.009 25.0364L113.353 19.3796ZM113.685 19.232H107.413V27.232H113.685V19.232ZM107.413 19.232C106.604 19.232 105.263 19.4369 104.153 20.5476C103.042 21.6583 102.837 22.9994 102.837 23.808H110.837C110.837 24.2326 110.728 25.2857 109.809 26.2044C108.891 27.1231 107.838 27.232 107.413 27.232V19.232ZM102.837 23.808V34.752H110.837V23.808H102.837ZM102.837 34.752C102.837 36.1895 102.898 37.4884 103.05 38.5929C103.184 39.562 103.447 40.9087 104.183 42.045L110.899 37.699C111.068 37.9596 111.1 38.1179 111.075 38.0318C111.056 37.9664 111.017 37.8014 110.976 37.5031C110.893 36.901 110.837 36.0025 110.837 34.752H102.837ZM104.273 42.1787C106.006 44.6337 108.984 44.96 110.869 44.96V36.96C110.58 36.96 110.365 36.9444 110.212 36.9248C110.057 36.9049 109.994 36.8842 110 36.886C110.007 36.8883 110.432 37.032 110.809 37.5653L104.273 42.1787ZM110.869 44.96C111.852 44.96 112.808 44.9159 113.639 44.7776L112.323 36.8864C112.13 36.9187 111.678 36.96 110.869 36.96V44.96ZM113.521 44.7953C113.531 44.794 113.449 44.805 113.316 44.7707C113.178 44.7355 113.084 44.6778 113.047 44.6494L117.907 38.2946C116.301 37.0664 114.39 36.6028 112.441 36.8687L113.521 44.7953ZM113.047 44.6494C112.988 44.6041 112.839 44.4674 112.715 44.2209C112.591 43.9719 112.565 43.7549 112.565 43.648H120.565C120.565 41.4785 119.6 39.5891 117.907 38.2946L113.047 44.6494ZM112.565 43.648V44.16H120.565V43.648H112.565ZM112.565 44.16C112.565 44.259 112.551 44.2948 112.55 44.297C112.549 44.2989 112.539 44.331 112.481 44.3995L118.601 49.5525C119.895 48.0156 120.565 46.1628 120.565 44.16H112.565ZM112.481 44.3995C112.46 44.425 112.45 44.4326 112.453 44.4298C112.454 44.4287 112.458 44.426 112.463 44.4224C112.469 44.4188 112.475 44.415 112.482 44.4114C112.488 44.4077 112.494 44.405 112.499 44.4031C112.504 44.4011 112.506 44.4005 112.505 44.4009C112.503 44.4014 112.483 44.4073 112.44 44.4125L113.394 52.3555C115.452 52.1085 117.255 51.1505 118.601 49.5525L112.481 44.3995ZM112.405 44.4169C111.295 44.5601 109.937 44.64 108.309 44.64V52.64C110.18 52.64 111.894 52.5492 113.429 52.3511L112.405 44.4169ZM108.309 44.64C104.327 44.64 102.613 43.7669 101.955 43.093L96.2315 48.683C99.1573 51.6784 103.587 52.64 108.309 52.64V44.64ZM102.019 43.1611C101.355 42.4485 100.469 40.4373 100.469 35.84H92.469C92.469 40.8854 93.3319 45.5728 96.1666 48.6149L102.019 43.1611ZM100.469 35.84V23.808H92.469V35.84H100.469ZM100.469 23.808C100.469 23.1079 100.324 21.8357 99.3306 20.7185C98.2578 19.5116 96.8743 19.232 95.957 19.232V27.232C95.3811 27.232 94.2535 27.0484 93.3514 26.0335C92.529 25.1083 92.469 24.1241 92.469 23.808H100.469ZM95.957 19.232H93.397V27.232H95.957V19.232ZM127.132 46.912L129.96 44.0836L129.96 44.0836L127.132 46.912ZM127.132 1.088L129.96 3.91642L129.96 3.91642L127.132 1.088ZM135.324 1.088L132.496 3.91642L132.496 3.91642L135.324 1.088ZM136.604 18.176L133.905 15.2239L133.839 15.2843L133.776 15.3476L136.604 18.176ZM154.652 17.472L151.459 19.8816L151.47 19.8963L151.482 19.9108L154.652 17.472ZM156.124 46.912L153.296 44.0836L153.296 44.0836L156.124 46.912ZM148.188 46.912L151.016 44.0836L151.016 44.0836L148.188 46.912ZM146.076 23.936L142.611 25.9349L142.64 25.9841L142.669 26.0324L146.076 23.936ZM138.268 24.192L141.096 27.0204L141.096 27.0204L138.268 24.192ZM135.324 46.912L132.496 44.0836L132.496 44.0836L135.324 46.912ZM129.692 44C129.694 44 129.717 44.0003 129.756 44.0079C129.795 44.0156 129.838 44.0285 129.881 44.0467C129.974 44.0863 129.999 44.1221 129.96 44.0836L124.304 49.7404C125.741 51.1781 127.597 52 129.692 52V44ZM129.96 44.0836C129.922 44.045 129.958 44.0703 129.997 44.1634C130.015 44.2061 130.028 44.2493 130.036 44.2883C130.044 44.3267 130.044 44.3497 130.044 44.352H122.044C122.044 46.4466 122.866 48.3028 124.304 49.7404L129.96 44.0836ZM130.044 44.352V3.648H122.044V44.352H130.044ZM130.044 3.648C130.044 3.65027 130.044 3.67328 130.036 3.71169C130.028 3.75066 130.015 3.79385 129.997 3.83656C129.958 3.92973 129.922 3.95498 129.96 3.91642L124.304 -1.74043C122.866 -0.302801 122.044 1.55344 122.044 3.648H130.044ZM129.96 3.91642C129.999 3.87787 129.974 3.91372 129.881 3.95332C129.838 3.97147 129.795 3.98436 129.756 3.99206C129.717 3.99966 129.694 4 129.692 4V-4C127.597 -4 125.741 -3.17806 124.304 -1.74043L129.96 3.91642ZM129.692 4H132.764V-4H129.692V4ZM132.764 4C132.762 4 132.739 3.99966 132.7 3.99206C132.661 3.98436 132.618 3.97147 132.575 3.95332C132.482 3.91372 132.457 3.87787 132.496 3.91642L138.152 -1.74043C136.715 -3.17806 134.859 -4 132.764 -4V4ZM132.496 3.91642C132.534 3.95498 132.498 3.92973 132.459 3.83656C132.441 3.79385 132.428 3.75066 132.42 3.71169C132.412 3.67328 132.412 3.65027 132.412 3.648H140.412C140.412 1.55344 139.59 -0.302801 138.152 -1.74043L132.496 3.91642ZM132.412 3.648V18.176H140.412V3.648H132.412ZM132.412 18.176C132.412 18.8139 132.574 20.0271 133.6 21.0524C134.625 22.0778 135.838 22.24 136.476 22.24V14.24C137.071 14.24 138.252 14.3915 139.256 15.3955C140.26 16.3996 140.412 17.5807 140.412 18.176H132.412ZM136.476 22.24C137.954 22.24 138.954 21.4831 139.432 21.0044L133.776 15.3476C134.169 14.9542 135.084 14.24 136.476 14.24V22.24ZM139.303 21.1281C141.698 18.9389 143.97 18.08 146.204 18.08V10.08C141.611 10.08 137.484 11.9517 133.905 15.2239L139.303 21.1281ZM146.204 18.08C149.391 18.08 150.773 18.9727 151.459 19.8816L157.845 15.0624C155.117 11.4486 150.867 10.08 146.204 10.08V18.08ZM151.482 19.9108C152.318 20.9984 153.212 23.7904 153.212 29.44H161.212C161.212 23.5696 160.399 18.3829 157.822 15.0332L151.482 19.9108ZM153.212 29.44V44.352H161.212V29.44H153.212ZM153.212 44.352C153.212 44.3497 153.212 44.3267 153.22 44.2883C153.228 44.2493 153.241 44.2061 153.259 44.1634C153.298 44.0703 153.334 44.045 153.296 44.0836L158.952 49.7404C160.39 48.3028 161.212 46.4466 161.212 44.352H153.212ZM153.296 44.0836C153.257 44.1221 153.282 44.0863 153.375 44.0467C153.418 44.0285 153.461 44.0156 153.5 44.0079C153.539 44.0003 153.562 44 153.564 44V52C155.659 52 157.515 51.1781 158.952 49.7404L153.296 44.0836ZM153.564 44H150.748V52H153.564V44ZM150.748 44C150.75 44 150.773 44.0003 150.812 44.0079C150.851 44.0156 150.894 44.0285 150.937 44.0467C151.03 44.0863 151.055 44.1221 151.016 44.0836L145.36 49.7404C146.797 51.1781 148.653 52 150.748 52V44ZM151.016 44.0836C150.978 44.045 151.014 44.0703 151.053 44.1634C151.071 44.2061 151.084 44.2493 151.092 44.2883C151.1 44.3267 151.1 44.3497 151.1 44.352H143.1C143.1 46.4466 143.922 48.3028 145.36 49.7404L151.016 44.0836ZM151.1 44.352V30.72H143.1V44.352H151.1ZM151.1 30.72C151.1 28.9006 151.01 27.2659 150.799 25.867C150.6 24.546 150.243 23.0752 149.483 21.8396L142.669 26.0324C142.592 25.9061 142.747 26.1207 142.889 27.061C143.019 27.9234 143.1 29.126 143.1 30.72H151.1ZM149.541 21.9371C147.9 19.0929 144.943 18.272 142.364 18.272V26.272C142.625 26.272 142.804 26.292 142.917 26.3124C143.029 26.3326 143.059 26.3501 143.032 26.338C143.001 26.3241 142.923 26.2835 142.831 26.2014C142.736 26.1177 142.662 26.0226 142.611 25.9349L149.541 21.9371ZM142.364 18.272C139.604 18.272 137.273 19.5299 135.44 21.3636L141.096 27.0204C141.823 26.2941 142.223 26.272 142.364 26.272V18.272ZM135.44 21.3636C133.645 23.1583 132.412 25.4465 132.412 28.16H140.412C140.412 28.0575 140.416 27.7004 141.096 27.0204L135.44 21.3636ZM132.412 28.16V44.352H140.412V28.16H132.412ZM132.412 44.352C132.412 44.3497 132.412 44.3267 132.42 44.2883C132.428 44.2493 132.441 44.2061 132.459 44.1634C132.498 44.0703 132.534 44.045 132.496 44.0836L138.152 49.7404C139.59 48.3028 140.412 46.4466 140.412 44.352H132.412ZM132.496 44.0836C132.457 44.1221 132.482 44.0863 132.575 44.0467C132.618 44.0285 132.661 44.0156 132.7 44.0079C132.739 44.0003 132.762 44 132.764 44V52C134.859 52 136.715 51.1781 138.152 49.7404L132.496 44.0836ZM132.764 44H129.692V52H132.764V44ZM177.253 35.2L178.098 31.2903L178.04 31.2777L177.981 31.2669L177.253 35.2ZM167.333 31.232L164.636 34.1859L164.652 34.2004L164.668 34.2146L167.333 31.232ZM167.909 16.768L170.3 19.975L170.309 19.968L167.909 16.768ZM187.301 14.784L187.959 10.8384L187.945 10.8361L187.931 10.8339L187.301 14.784ZM189.797 16.256L186.657 18.7346L186.697 18.7842L186.737 18.8325L189.797 16.256ZM189.733 21.568L187.303 18.3906L187.256 18.4264L187.211 18.4635L189.733 21.568ZM187.365 22.144L186.581 26.0663L186.599 26.0699L186.617 26.0734L187.365 22.144ZM175.973 21.952L173.945 18.5043L173.899 18.5315L173.853 18.56L175.973 21.952ZM178.789 27.072L178.005 30.9943L178.068 31.007L178.131 31.0176L178.789 27.072ZM188.965 30.912L186.271 33.8688L186.287 33.8835L186.304 33.8981L188.965 30.912ZM188.325 46.016L190.688 49.2435L190.707 49.2298L190.725 49.216L188.325 46.016ZM168.421 47.68L169.259 43.7688L169.248 43.7664L169.237 43.7641L168.421 47.68ZM165.861 46.08L162.606 48.405L162.669 48.4937L162.738 48.5788L165.861 46.08ZM165.989 40.512L168.162 43.8703L168.23 43.8264L168.296 43.7799L165.989 40.512ZM168.421 40.064L169.433 36.1942L169.39 36.183L169.347 36.1728L168.421 40.064ZM180.453 36.416L177.869 39.4695L177.925 39.5164L177.982 39.5613L180.453 36.416ZM177.981 31.2669C173.626 30.4604 171.187 29.3118 169.998 28.2494L164.668 34.2146C167.489 36.7362 171.664 38.2329 176.525 39.1331L177.981 31.2669ZM170.03 28.2781C168.992 27.3302 168.389 26.0828 168.389 24.128H160.389C160.389 28.0612 161.749 31.5498 164.636 34.1859L170.03 28.2781ZM168.389 24.128C168.389 22.1183 169.055 20.9029 170.3 19.975L165.518 13.561C162.07 16.1318 160.389 19.823 160.389 24.128H168.389ZM170.309 19.968C171.701 18.9242 174.267 18.08 178.661 18.08V10.08C173.498 10.08 168.896 11.0278 165.509 13.568L170.309 19.968ZM178.661 18.08C181.254 18.08 183.923 18.2961 186.671 18.7341L187.931 10.8339C184.791 10.3333 181.7 10.08 178.661 10.08V18.08ZM186.643 18.7296C186.661 18.7326 186.674 18.7354 186.681 18.7373C186.688 18.7391 186.691 18.7402 186.69 18.7399C186.69 18.7397 186.686 18.7384 186.68 18.7357C186.675 18.7331 186.668 18.7297 186.661 18.7255C186.654 18.7213 186.647 18.717 186.642 18.713C186.637 18.709 186.633 18.7061 186.632 18.7048C186.63 18.7036 186.632 18.7047 186.636 18.7091C186.64 18.7135 186.647 18.7217 186.657 18.7346L192.937 13.7774C191.677 12.1818 189.958 11.1716 187.959 10.8384L186.643 18.7296ZM186.737 18.8325C186.795 18.901 186.805 18.9331 186.806 18.935C186.807 18.9372 186.821 18.973 186.821 19.072H194.821C194.821 17.0692 194.151 15.2164 192.857 13.6795L186.737 18.8325ZM186.821 19.072V19.392H194.821V19.072H186.821ZM186.821 19.392C186.821 19.2851 186.847 19.0681 186.971 18.8191C187.095 18.5726 187.244 18.4359 187.303 18.3906L192.163 24.7454C193.856 23.4509 194.821 21.5615 194.821 19.392H186.821ZM187.211 18.4635C187.292 18.3978 187.454 18.2971 187.684 18.2413C187.909 18.1866 188.069 18.2063 188.113 18.2146L186.617 26.0734C188.622 26.4553 190.619 26.0019 192.255 24.6725L187.211 18.4635ZM188.149 18.2217C185.169 17.6255 182.342 17.312 179.685 17.312V25.312C181.721 25.312 184.015 25.5532 186.581 26.0663L188.149 18.2217ZM179.685 17.312C177.839 17.312 175.658 17.4963 173.945 18.5043L178.001 25.3997C177.796 25.5203 177.77 25.4749 178.125 25.4138C178.451 25.3576 178.957 25.312 179.685 25.312V17.312ZM173.853 18.56C171.919 19.769 170.949 21.7394 170.949 23.872H178.949C178.949 23.986 178.923 24.2807 178.734 24.6344C178.54 24.9983 178.279 25.2279 178.093 25.344L173.853 18.56ZM170.949 23.872C170.949 25.9072 171.825 27.6918 173.348 28.9609C174.711 30.0964 176.406 30.6747 178.005 30.9943L179.573 23.1497C179.124 23.0598 178.821 22.9628 178.63 22.8844C178.438 22.8055 178.411 22.7663 178.47 22.8151C178.54 22.874 178.684 23.0195 178.8 23.2643C178.918 23.5121 178.949 23.7362 178.949 23.872H170.949ZM178.131 31.0176C182.812 31.7977 185.237 32.9266 186.271 33.8688L191.659 27.9552C188.853 25.3988 184.494 23.9676 179.447 23.1264L178.131 31.0176ZM186.304 33.8981C187.199 34.6962 187.909 36.0157 187.909 38.528H195.909C195.909 34.3843 194.656 30.6265 191.626 27.9259L186.304 33.8981ZM187.909 38.528C187.909 40.5735 187.226 41.84 185.925 42.816L190.725 49.216C194.202 46.608 195.909 42.8825 195.909 38.528H187.909ZM185.962 42.7885C184.54 43.83 182.04 44.64 177.893 44.64V52.64C182.877 52.64 187.332 51.7006 190.688 49.2435L185.962 42.7885ZM177.893 44.64C174.822 44.64 171.947 44.3448 169.259 43.7688L167.583 51.5912C170.868 52.2952 174.308 52.64 177.893 52.64V44.64ZM169.237 43.7641C169.169 43.7499 169.144 43.7346 169.133 43.728C169.12 43.7201 169.068 43.686 168.984 43.5812L162.738 48.5788C163.973 50.1232 165.627 51.1839 167.605 51.5959L169.237 43.7641ZM169.116 43.755C168.964 43.5429 168.901 43.3543 168.901 43.072H160.901C160.901 45.0083 161.478 46.8251 162.606 48.405L169.116 43.755ZM168.901 43.072V42.56H160.901V43.072H168.901ZM168.901 42.56C168.901 42.6618 168.877 42.9303 168.705 43.2526C168.531 43.5811 168.303 43.7792 168.162 43.8703L163.816 37.1537C161.901 38.3926 160.901 40.3679 160.901 42.56H168.901ZM168.296 43.7799C168.222 43.8316 168.073 43.9117 167.866 43.9498C167.663 43.9872 167.524 43.9623 167.495 43.9552L169.347 36.1728C167.382 35.7048 165.385 36.0421 163.682 37.2441L168.296 43.7799ZM167.409 43.9338C170.491 44.7399 173.562 45.152 176.613 45.152V37.152C174.288 37.152 171.898 36.8388 169.433 36.1942L167.409 43.9338ZM176.613 45.152C178.448 45.152 180.478 44.9085 182.175 43.9225C184.204 42.7436 185.349 40.7339 185.349 38.4H177.349C177.349 38.2709 177.382 37.9647 177.583 37.6137C177.785 37.2617 178.036 37.0749 178.155 37.0055C178.25 36.9507 178.21 36.9978 177.924 37.053C177.646 37.1069 177.22 37.152 176.613 37.152V45.152ZM185.349 38.4C185.349 36.4914 184.615 34.5988 182.924 33.2707L177.982 39.5613C177.799 39.4173 177.608 39.1943 177.48 38.9103C177.358 38.6405 177.349 38.4422 177.349 38.4H185.349ZM183.037 33.3625C181.661 32.1981 179.715 31.6399 178.098 31.2903L176.408 39.1097C177.075 39.2539 177.529 39.3901 177.816 39.4991C177.956 39.5522 178.025 39.5873 178.042 39.5964C178.062 39.6074 177.989 39.5712 177.869 39.4695L183.037 33.3625ZM211.316 40.128L210.448 44.0327L210.507 44.046L210.567 44.0574L211.316 40.128ZM221.236 38.72L223.711 41.862L223.74 41.8392L223.768 41.8158L221.236 38.72ZM211.252 9.152L210.467 5.22967L210.374 5.24834L210.281 5.27143L211.252 9.152ZM203.635 48.128L204.01 44.1456L203.989 44.1436L203.968 44.1418L203.635 48.128ZM201.076 46.784L204.135 44.2075L204.135 44.2075L201.076 46.784ZM201.076 2.496L198.095 -0.171195L198.086 -0.161457L201.076 2.496ZM203.7 1.152L204.032 5.13818L204.07 5.13501L204.108 5.13112L203.7 1.152ZM229.428 19.456L226.501 16.7291L226.484 16.7471L226.468 16.7653L229.428 19.456ZM222.516 23.04V27.04H222.866L223.211 26.9791L222.516 23.04ZM222.58 23.232L223.131 19.2702L222.857 19.232H222.58V23.232ZM230.58 27.072L227.663 29.8097L227.678 29.8254L227.693 29.8409L230.58 27.072ZM228.852 45.184L231.23 48.3998L231.238 48.3944L228.852 45.184ZM206.74 28.16V39.424H214.74V28.16H206.74ZM206.74 39.424C206.74 40.288 206.965 41.416 207.788 42.4209C208.601 43.4152 209.643 43.8539 210.448 44.0327L212.183 36.2233C212.604 36.3168 213.358 36.5954 213.979 37.3551C214.61 38.1254 214.74 38.944 214.74 39.424H206.74ZM210.567 44.0574C211.786 44.2896 213.14 44.384 214.58 44.384V36.384C213.459 36.384 212.637 36.3078 212.064 36.1986L210.567 44.0574ZM214.58 44.384C217.943 44.384 221.255 43.7969 223.711 41.862L218.76 35.578C218.4 35.8618 217.275 36.384 214.58 36.384V44.384ZM223.768 41.8158C226.361 39.6944 227.348 36.6426 227.348 33.472H219.348C219.348 34.9948 218.926 35.4416 218.703 35.6242L223.768 41.8158ZM227.348 33.472C227.348 30.1954 225.889 27.3944 223.039 25.6462C220.508 24.0941 217.226 23.584 213.748 23.584V31.584C216.669 31.584 218.187 32.0552 218.856 32.4658C219.132 32.6349 219.207 32.7576 219.233 32.8061C219.264 32.8626 219.348 33.0431 219.348 33.472H227.348ZM213.748 23.584H211.252V31.584H213.748V23.584ZM211.252 23.584C210.334 23.584 208.951 23.8636 207.878 25.0705C206.885 26.1877 206.74 27.4599 206.74 28.16H214.74C214.74 28.4761 214.679 29.4603 213.857 30.3855C212.955 31.4004 211.827 31.584 211.252 31.584V23.584ZM206.74 9.856V19.264H214.74V9.856H206.74ZM206.74 19.264C206.74 20.0512 206.939 21.3764 208.039 22.4764C209.139 23.5765 210.464 23.776 211.252 23.776V15.776C211.697 15.776 212.767 15.8902 213.696 16.8196C214.625 17.749 214.74 18.8181 214.74 19.264H206.74ZM211.252 23.776H212.852V15.776H211.252V23.776ZM212.852 23.776C216.233 23.776 219.431 23.2955 221.907 21.8202C224.71 20.1499 226.196 17.4321 226.196 14.208H218.196C218.196 14.565 218.125 14.6832 218.121 14.6912C218.119 14.6948 218.071 14.7932 217.812 14.9478C217.173 15.3285 215.7 15.776 212.852 15.776V23.776ZM226.196 14.208C226.196 11.3065 225.04 8.64942 222.493 6.9168C220.223 5.37187 217.319 4.896 214.388 4.896V12.896C216.662 12.896 217.662 13.3055 217.994 13.5312C218.108 13.6093 218.115 13.6437 218.115 13.6439C218.125 13.6623 218.196 13.8137 218.196 14.208H226.196ZM214.388 4.896C212.987 4.896 211.661 4.9908 210.467 5.22967L212.036 13.0743C212.548 12.9719 213.313 12.896 214.388 12.896V4.896ZM210.281 5.27143C209.401 5.4915 208.381 6.01028 207.633 7.03932C206.911 8.03114 206.74 9.08984 206.74 9.856H214.74C214.74 10.2382 214.653 10.9875 214.102 11.7447C213.525 12.539 212.761 12.8978 212.222 13.0326L210.281 5.27143ZM203.968 44.1418C203.956 44.1408 203.966 44.1407 203.993 44.1483C204.02 44.156 204.053 44.1686 204.087 44.1864C204.121 44.2041 204.144 44.2209 204.155 44.2301C204.165 44.2388 204.158 44.2345 204.135 44.2075L198.016 49.3605C199.36 50.9566 201.182 51.9374 203.303 52.1142L203.968 44.1418ZM204.135 44.2075C204.098 44.1639 204.079 44.1334 204.069 44.1168C204.059 44.1006 204.056 44.0931 204.056 44.0931C204.056 44.0926 204.056 44.0923 204.056 44.0921C204.056 44.0918 204.056 44.0903 204.055 44.0873C204.054 44.0821 204.052 44.0648 204.052 44.032H196.052C196.052 46.0341 196.749 47.8562 198.016 49.3605L204.135 44.2075ZM204.052 44.032V5.248H196.052V44.032H204.052ZM204.052 5.248C204.052 5.19519 204.056 5.16533 204.058 5.15421C204.059 5.14365 204.06 5.14536 204.056 5.15493C204.053 5.16467 204.048 5.17292 204.046 5.17704C204.044 5.18083 204.048 5.17285 204.065 5.15345L198.086 -0.161457C196.726 1.36875 196.052 3.24257 196.052 5.248H204.052ZM204.056 5.16318C204.093 5.12208 204.115 5.10389 204.121 5.09982C204.123 5.09766 204.123 5.09837 204.119 5.10102C204.114 5.10368 204.108 5.10763 204.099 5.11217C204.09 5.11672 204.08 5.12122 204.07 5.12532C204.059 5.12943 204.05 5.13261 204.041 5.13495C204.033 5.13729 204.027 5.13842 204.025 5.13884C204.023 5.13925 204.025 5.13876 204.032 5.13818L203.367 -2.83419C201.26 -2.6586 199.458 -1.69474 198.095 -0.171181L204.056 5.16318ZM204.108 5.13112C207.306 4.80307 210.434 4.64 213.492 4.64V-3.36C210.149 -3.36 206.749 -3.18174 203.291 -2.82713L204.108 5.13112ZM213.492 4.64C219.376 4.64 223.101 5.61192 225.244 6.9937C227.085 8.18111 228.052 9.84187 228.052 12.608H236.052C236.052 7.39546 233.924 3.07222 229.579 0.270301C225.535 -2.33726 219.98 -3.36 213.492 -3.36V4.64ZM228.052 12.608C228.052 14.3369 227.525 15.6301 226.501 16.7291L232.354 22.1829C234.829 19.5273 236.052 16.2551 236.052 12.608H228.052ZM226.468 16.7653C225.45 17.885 223.996 18.7169 221.82 19.1009L223.211 26.9791C226.838 26.3391 229.992 24.7817 232.387 22.1467L226.468 16.7653ZM222.516 19.04C221.805 19.04 221.005 19.2292 220.269 19.7198C219.558 20.1938 219.132 20.798 218.89 21.2832C218.461 22.1403 218.452 22.921 218.452 23.168H226.452C226.452 23.3296 226.452 24.0463 226.045 24.8608C225.813 25.3247 225.401 25.9129 224.706 26.3762C223.986 26.8562 223.205 27.04 222.516 27.04V19.04ZM218.452 23.168C218.452 23.8786 218.641 24.6788 219.131 25.4148C219.605 26.1258 220.209 26.5511 220.695 26.7937C221.552 27.2223 222.333 27.232 222.58 27.232V19.232C222.741 19.232 223.458 19.231 224.272 19.6383C224.736 19.8702 225.324 20.2822 225.788 20.9772C226.268 21.6972 226.452 22.4787 226.452 23.168H218.452ZM222.028 27.1938C224.67 27.5616 226.438 28.5041 227.663 29.8097L233.496 24.3343C230.796 21.4586 227.231 19.841 223.131 19.2702L222.028 27.1938ZM227.693 29.8409C228.983 31.1855 229.588 32.6889 229.588 34.56H237.588C237.588 30.6284 236.187 27.1398 233.466 24.3031L227.693 29.8409ZM229.588 34.56C229.588 38.321 228.395 40.5394 226.465 41.9736L231.238 48.3944C235.623 45.1352 237.588 40.271 237.588 34.56H229.588ZM226.473 41.9682C224.39 43.509 220.532 44.64 214.132 44.64V52.64C221.128 52.64 227.084 51.467 231.23 48.3998L226.473 41.9682ZM214.132 44.64C210.896 44.64 207.522 44.4761 204.01 44.1456L203.261 52.1104C207.002 52.4625 210.626 52.64 214.132 52.64V44.64ZM241.963 45.504L238.833 47.995L238.848 48.0143L238.864 48.0335L241.963 45.504ZM240.555 15.808L243.383 18.6364L243.383 18.6364L240.555 15.808ZM248.491 15.808L245.662 18.6364L245.662 18.6364L248.491 15.808ZM250.539 39.168L247.234 41.4213L247.293 41.5084L247.357 41.5922L250.539 39.168ZM258.091 38.72L260.869 41.5976L260.894 41.5732L260.919 41.5484L258.091 38.72ZM261.035 15.808L263.863 18.6364L263.863 18.6364L261.035 15.808ZM269.227 15.808L266.398 18.6364L266.398 18.6364L269.227 15.808ZM261.419 46.976L258.506 49.7175L258.589 49.8057L258.677 49.8888L261.419 46.976ZM260.331 44.352H256.331V44.4353L256.334 44.5185L260.331 44.352ZM260.267 43.776V39.776H258.61L257.438 40.9476L260.267 43.776ZM260.139 43.904L257.31 41.0756L257.219 41.167L257.133 41.2642L260.139 43.904ZM250.155 44.64C247.107 44.64 245.743 43.8095 245.061 42.9745L238.864 48.0335C241.596 51.3799 245.693 52.64 250.155 52.64V44.64ZM245.092 43.013C244.312 42.0332 243.467 39.6278 243.467 34.752H235.467C235.467 40.0309 236.285 44.7935 238.833 47.995L245.092 43.013ZM243.467 34.752V18.368H235.467V34.752H243.467ZM243.467 18.368C243.467 18.3703 243.466 18.3933 243.459 18.4317C243.451 18.4707 243.438 18.5138 243.42 18.5566C243.38 18.6497 243.344 18.675 243.383 18.6364L237.726 12.9796C236.288 14.4172 235.467 16.2734 235.467 18.368H243.467ZM243.383 18.6364C243.421 18.5979 243.396 18.6337 243.303 18.6733C243.26 18.6915 243.217 18.7044 243.178 18.7121C243.14 18.7197 243.117 18.72 243.115 18.72V10.72C241.02 10.72 239.164 11.5419 237.726 12.9796L243.383 18.6364ZM243.115 18.72H245.931V10.72H243.115V18.72ZM245.931 18.72C245.928 18.72 245.905 18.7197 245.867 18.7121C245.828 18.7044 245.785 18.6915 245.742 18.6733C245.649 18.6337 245.624 18.5979 245.662 18.6364L251.319 12.9796C249.881 11.5419 248.025 10.72 245.931 10.72V18.72ZM245.662 18.6364C245.701 18.675 245.665 18.6497 245.625 18.5566C245.607 18.5138 245.594 18.4707 245.586 18.4317C245.579 18.3933 245.579 18.3703 245.579 18.368H253.579C253.579 16.2734 252.757 14.4172 251.319 12.9796L245.662 18.6364ZM245.579 18.368V34.048H253.579V18.368H245.579ZM245.579 34.048C245.579 36.5753 245.85 39.3913 247.234 41.4213L253.843 36.9147C253.955 37.0784 253.857 37.0157 253.75 36.4468C253.65 35.9148 253.579 35.1329 253.579 34.048H245.579ZM247.357 41.5922C249.088 43.864 251.701 44.512 253.995 44.512V36.512C253.771 36.512 253.611 36.4964 253.504 36.4792C253.398 36.4621 253.357 36.4453 253.364 36.448C253.373 36.4516 253.427 36.4739 253.502 36.5292C253.58 36.5859 253.656 36.6595 253.72 36.7438L247.357 41.5922ZM253.995 44.512C256.682 44.512 259.008 43.3945 260.869 41.5976L255.312 35.8424C254.699 36.4349 254.293 36.512 253.995 36.512V44.512ZM260.919 41.5484C262.714 39.7537 263.947 37.4655 263.947 34.752H255.947C255.947 34.8545 255.942 35.2116 255.262 35.8916L260.919 41.5484ZM263.947 34.752V18.368H255.947V34.752H263.947ZM263.947 18.368C263.947 18.3703 263.946 18.3933 263.939 18.4317C263.931 18.4707 263.918 18.5138 263.9 18.5566C263.86 18.6497 263.824 18.675 263.863 18.6364L258.206 12.9796C256.768 14.4172 255.947 16.2734 255.947 18.368H263.947ZM263.863 18.6364C263.901 18.5979 263.876 18.6337 263.783 18.6733C263.74 18.6915 263.697 18.7044 263.658 18.7121C263.62 18.7197 263.597 18.72 263.595 18.72V10.72C261.5 10.72 259.644 11.5419 258.206 12.9796L263.863 18.6364ZM263.595 18.72H266.667V10.72H263.595V18.72ZM266.667 18.72C266.664 18.72 266.641 18.7197 266.603 18.7121C266.564 18.7044 266.521 18.6915 266.478 18.6733C266.385 18.6337 266.36 18.5979 266.398 18.6364L272.055 12.9796C270.617 11.5419 268.761 10.72 266.667 10.72V18.72ZM266.398 18.6364C266.437 18.675 266.401 18.6497 266.361 18.5566C266.343 18.5138 266.33 18.4707 266.322 18.4317C266.315 18.3933 266.315 18.3703 266.315 18.368H274.315C274.315 16.2734 273.493 14.4172 272.055 12.9796L266.398 18.6364ZM266.315 18.368V44.352H274.315V18.368H266.315ZM266.315 44.352C266.315 44.3497 266.315 44.3267 266.322 44.2883C266.33 44.2493 266.343 44.2061 266.361 44.1634C266.401 44.0703 266.437 44.045 266.398 44.0836L272.055 49.7404C273.493 48.3028 274.315 46.4466 274.315 44.352H266.315ZM266.398 44.0836C266.36 44.1221 266.385 44.0863 266.478 44.0467C266.521 44.0285 266.564 44.0156 266.603 44.0079C266.641 44.0003 266.664 44 266.667 44V52C268.761 52 270.617 51.1781 272.055 49.7404L266.398 44.0836ZM266.667 44H264.043V52H266.667V44ZM264.043 44C264.009 44 264 43.9973 264.01 43.9991C264.021 44.001 264.043 44.0063 264.073 44.0177C264.102 44.0292 264.128 44.0427 264.147 44.0549C264.165 44.0669 264.17 44.0722 264.16 44.0632L258.677 49.8888C260.167 51.2912 262.031 52 264.043 52V44ZM264.331 44.2345C264.315 44.2174 264.312 44.2111 264.315 44.2162C264.319 44.2217 264.324 44.2317 264.329 44.2439C264.335 44.2561 264.335 44.2618 264.334 44.2569C264.333 44.2515 264.329 44.2291 264.327 44.1855L256.334 44.5185C256.415 46.4727 257.143 48.2701 258.506 49.7175L264.331 44.2345ZM264.331 44.352V43.84H256.331V44.352H264.331ZM264.331 43.84C264.331 43.2021 264.168 41.9889 263.143 40.9635C262.118 39.9382 260.904 39.776 260.267 39.776V47.776C259.671 47.776 258.49 47.6245 257.486 46.6205C256.482 45.6164 256.331 44.4353 256.331 43.84H264.331ZM257.438 40.9476L257.31 41.0756L262.967 46.7324L263.095 46.6044L257.438 40.9476ZM257.133 41.2642C255.049 43.6372 252.784 44.64 250.155 44.64V52.64C255.291 52.64 259.681 50.4854 263.144 46.5438L257.133 41.2642ZM288.707 38.592L285.475 40.9499L288.707 38.592ZM297.859 39.232L295.183 36.2588L295.183 36.2588L297.859 39.232ZM280.515 44.096L277.378 46.5788L277.387 46.5895L277.395 46.6001L280.515 44.096ZM280.387 18.56L283.532 21.0313L283.532 21.0313L280.387 18.56ZM299.395 17.984L302.223 15.1555L302.157 15.0893L302.087 15.0262L299.395 17.984ZM300.611 1.088L297.782 -1.74043L297.739 -1.69758L297.698 -1.65346L300.611 1.088ZM308.803 1.088L305.89 3.82945L305.931 3.87358L305.974 3.91642L308.803 1.088ZM308.803 46.912L305.974 44.0836L305.931 44.1264L305.89 44.1705L308.803 46.912ZM301.251 46.976L298.338 49.7175L298.421 49.8057L298.509 49.8888L301.251 46.976ZM300.163 44.352H296.163V44.4353L296.166 44.5185L300.163 44.352ZM300.099 43.776V39.776H298.442L297.27 40.9476L300.099 43.776ZM299.971 43.904L297.142 41.0756L297.029 41.1889L296.925 41.311L299.971 43.904ZM293.378 17.76C290.08 17.76 287.15 19.0924 285.25 21.9412C283.542 24.5038 282.979 27.8419 282.979 31.36H290.979C290.979 28.4781 291.482 27.0162 291.907 26.3788C292.141 26.0276 292.41 25.76 293.378 25.76V17.76ZM282.979 31.36C282.979 34.9423 283.59 38.3666 285.475 40.9499L291.938 36.2341C291.519 35.66 290.979 34.263 290.979 31.36H282.979ZM285.475 40.9499C287.384 43.5657 290.145 44.96 293.378 44.96V36.96C292.687 36.96 292.333 36.7756 291.938 36.2341L285.475 40.9499ZM293.378 44.96C296.083 44.96 298.527 44.0116 300.534 42.2052L295.183 36.2588C294.63 36.7564 294.087 36.96 293.378 36.96V44.96ZM300.534 42.2052C302.485 40.4496 303.779 38.1254 303.779 35.328H295.779C295.779 35.432 295.792 35.7104 295.183 36.2588L300.534 42.2052ZM303.779 35.328V27.392H295.779V35.328H303.779ZM303.779 27.392C303.779 24.5946 302.485 22.2704 300.534 20.5148L295.183 26.4612C295.792 27.0096 295.779 27.288 295.779 27.392H303.779ZM300.534 20.5148C298.527 18.7084 296.083 17.76 293.378 17.76V25.76C294.087 25.76 294.63 25.9636 295.183 26.4612L300.534 20.5148ZM289.859 44.64C287.306 44.64 285.327 43.7008 283.634 41.5919L277.395 46.6001C280.566 50.5498 284.816 52.64 289.859 52.64V44.64ZM283.651 41.6132C281.958 39.4752 280.867 36.2179 280.867 31.36H272.867C272.867 37.3394 274.207 42.5728 277.378 46.5788L283.651 41.6132ZM280.867 31.36C280.867 26.3111 281.943 23.0534 283.532 21.0313L277.241 16.0887C274.137 20.0399 272.867 25.3155 272.867 31.36H280.867ZM283.532 21.0313C285.082 19.0588 287.054 18.08 289.859 18.08V10.08C284.727 10.08 280.385 12.0879 277.241 16.0887L283.532 21.0313ZM289.859 18.08C292.253 18.08 294.496 18.9335 296.702 20.9418L302.087 15.0262C298.576 11.8291 294.461 10.08 289.859 10.08V18.08ZM296.566 20.8125C297.045 21.2911 298.045 22.048 299.523 22.048V14.048C300.915 14.048 301.83 14.7622 302.223 15.1555L296.566 20.8125ZM299.523 22.048C300.16 22.048 301.373 21.8858 302.399 20.8605C303.424 19.8351 303.587 18.6219 303.587 17.984H295.587C295.587 17.3887 295.738 16.2076 296.742 15.2035C297.746 14.1995 298.927 14.048 299.523 14.048V22.048ZM303.587 17.984V3.648H295.587V17.984H303.587ZM303.587 3.648C303.587 3.63549 303.587 3.64358 303.583 3.66763C303.578 3.69222 303.57 3.72366 303.556 3.75756C303.543 3.79138 303.529 3.81706 303.518 3.83276C303.509 3.84793 303.507 3.84637 303.523 3.82945L297.698 -1.65346C296.328 -0.198521 295.587 1.63084 295.587 3.648H303.587ZM303.439 3.91642C303.477 3.87787 303.452 3.91372 303.359 3.95332C303.316 3.97147 303.273 3.98436 303.234 3.99206C303.196 3.99966 303.173 4 303.171 4V-4C301.076 -4 299.22 -3.17806 297.782 -1.74043L303.439 3.91642ZM303.171 4H306.307V-4H303.171V4ZM306.307 4C306.292 4 306.196 3.9946 306.068 3.93878C305.941 3.88354 305.883 3.82234 305.89 3.82945L311.715 -1.65346C310.29 -3.16827 308.409 -4 306.307 -4V4ZM305.974 3.91642C306.013 3.95498 305.977 3.92973 305.937 3.83656C305.919 3.79385 305.906 3.75067 305.898 3.71169C305.891 3.67328 305.891 3.65027 305.891 3.648H313.891C313.891 1.55344 313.069 -0.302803 311.631 -1.74043L305.974 3.91642ZM305.891 3.648V44.352H313.891V3.648H305.891ZM305.891 44.352C305.891 44.3497 305.891 44.3267 305.898 44.2883C305.906 44.2493 305.919 44.2061 305.937 44.1634C305.977 44.0703 306.013 44.045 305.974 44.0836L311.631 49.7404C313.069 48.3028 313.891 46.4466 313.891 44.352H305.891ZM305.89 44.1705C305.883 44.1777 305.941 44.1165 306.068 44.0612C306.196 44.0054 306.292 44 306.307 44V52C308.409 52 310.29 51.1683 311.715 49.6535L305.89 44.1705ZM306.307 44H303.875V52H306.307V44ZM303.875 44C303.841 44 303.832 43.9973 303.842 43.9991C303.853 44.001 303.875 44.0063 303.905 44.0177C303.934 44.0292 303.96 44.0427 303.979 44.0549C303.997 44.0669 304.002 44.0722 303.992 44.0632L298.509 49.8888C299.999 51.2912 301.863 52 303.875 52V44ZM304.163 44.2345C304.147 44.2174 304.144 44.2111 304.147 44.2162C304.151 44.2217 304.156 44.2317 304.161 44.2439C304.167 44.2561 304.167 44.2618 304.166 44.2569C304.165 44.2515 304.161 44.2291 304.159 44.1855L296.166 44.5185C296.247 46.4727 296.975 48.2701 298.338 49.7175L304.163 44.2345ZM304.163 44.352V43.84H296.163V44.352H304.163ZM304.163 43.84C304.163 43.2021 304 41.989 302.975 40.9636C301.95 39.9382 300.736 39.776 300.099 39.776V47.776C299.503 47.776 298.322 47.6245 297.318 46.6204C296.314 45.6164 296.163 44.4352 296.163 43.84H304.163ZM297.27 40.9476L297.142 41.0756L302.799 46.7324L302.927 46.6044L297.27 40.9476ZM296.925 41.311C294.977 43.5993 292.709 44.64 289.859 44.64V52.64C295.115 52.64 299.588 50.5234 303.016 46.497L296.925 41.311Z" fill="black"/>
</svg>
